<svg xmlns="http://www.w3.org/2000/svg" width="400" height="400" viewBox="0 0 400 400">
  <g fill="none" stroke="#c9a227" stroke-width="0.6" opacity="0.35">
    <circle cx="40" cy="60" r="1.2" fill="#c9a227"/>
    <circle cx="120" cy="45" r="1" fill="#c9a227"/>
    <circle cx="200" cy="80" r="1.4" fill="#c9a227"/>
    <circle cx="320" cy="55" r="1" fill="#c9a227"/>
    <circle cx="80" cy="180" r="1.2" fill="#c9a227"/>
    <circle cx="280" cy="160" r="1" fill="#c9a227"/>
    <circle cx="360" cy="220" r="1.2" fill="#c9a227"/>
    <circle cx="60" cy="300" r="1" fill="#c9a227"/>
    <circle cx="180" cy="340" r="1.4" fill="#c9a227"/>
    <circle cx="300" cy="320" r="1" fill="#c9a227"/>
    <path d="M40 60 L120 45 L200 80"/>
    <path d="M200 80 L320 55"/>
    <path d="M80 180 L200 80 L280 160"/>
    <path d="M280 160 L360 220"/>
    <path d="M60 300 L180 340 L300 320"/>
    <path d="M120 45 L80 180"/>
    <path d="M320 55 L360 220 L300 320"/>
  </g>
</svg>
